<svg width="68" height="68" viewBox="0 0 68 68" fill="none" xmlns="http://www.w3.org/2000/svg">
<path d="M33.8701 22.6992V58.4536" stroke="#0E3844" stroke-linejoin="bevel"/>
<path d="M36.7199 16.8858C35.9787 19.6398 34.9587 20.8978 34.1767 20.687C33.3947 20.4762 33.1431 18.8781 33.8843 16.1241C34.6255 13.3701 36.0807 10.5005 36.8627 10.6841C37.6447 10.8677 37.4339 14.125 36.7199 16.8858Z" fill="#FBA543" stroke="#0E3844" stroke-miterlimit="10"/>
<path d="M30.7086 27.8268C31.4566 25.066 32.4698 23.808 33.2518 24.0188C34.0338 24.2296 34.2854 25.8412 33.5442 28.5612C32.803 31.2812 31.3546 34.212 30.5998 34.0012C29.845 33.7904 29.9674 30.6012 30.7086 27.8268Z" fill="#FBA543" stroke="#0E3844" stroke-miterlimit="10"/>
<path d="M39.1748 25.3449C36.4548 24.6037 35.156 23.5837 35.3668 22.8017C35.5776 22.0197 37.1824 21.7681 39.9364 22.5093C42.6904 23.2505 45.56 24.7057 45.3764 25.4877C45.1928 26.2697 41.9288 26.0861 39.1748 25.3449Z" fill="#FBA543" stroke="#0E3844" stroke-miterlimit="10"/>
<path d="M28.2334 19.36C30.9534 20.1012 32.2454 21.1212 32.0346 21.9032C31.8238 22.6852 30.2258 22.9368 27.4718 22.1956C24.7178 21.4544 21.8482 20.006 22.0318 19.224C22.2154 18.442 25.4726 18.6188 28.2334 19.36Z" fill="#FBA543" stroke="#0E3844" stroke-miterlimit="10"/>
<path d="M39.6843 20.5995C37.2091 22.0275 35.6043 22.1975 35.1963 21.4971C34.7883 20.7967 35.7471 19.4571 38.2223 18.0563C40.6975 16.6555 43.7507 15.6423 44.1519 16.3223C44.5531 17.0023 42.1595 19.1783 39.6843 20.5995Z" fill="#FBA543" stroke="#0E3844" stroke-miterlimit="10"/>
<path d="M27.716 24.107C30.1912 22.6858 31.796 22.509 32.2108 23.2162C32.6256 23.9234 31.66 25.2562 29.1848 26.6162C26.7096 27.9762 23.6564 29.0438 23.2552 28.3366C22.854 27.6294 25.2476 25.535 27.716 24.107Z" fill="#FBA543" stroke="#0E3844" stroke-miterlimit="10"/>
<path d="M35.4546 28.3367C34.0334 25.8615 33.8634 24.2567 34.5638 23.8487C35.2642 23.4407 36.6038 24.3995 37.9978 26.8747C39.3918 29.3499 40.4254 32.3963 39.725 32.8043C39.0246 33.2123 36.8826 30.8119 35.4546 28.3367Z" fill="#FBA543" stroke="#0E3844" stroke-miterlimit="10"/>
<path d="M31.9591 16.3685C33.3871 18.8437 33.5571 20.4485 32.8567 20.8565C32.1563 21.2645 30.8167 20.3057 29.4159 17.8373C28.0151 15.3689 26.9951 12.3089 27.6955 11.9009C28.3959 11.4929 30.5243 13.9001 31.9591 16.3685Z" fill="#FBA543" stroke="#0E3844" stroke-miterlimit="10"/>
<path d="M42.8398 42.6358C40.8948 42.6762 38.9886 43.1871 37.2842 44.125C41.779 38.9434 48.9598 32.1774 54.1414 35.2034C54.1414 35.2034 53.7198 42.4862 42.8398 42.6358Z" fill="#0099F5" stroke="#0E3844" stroke-linejoin="bevel"/>
<path d="M33.8701 49.4866L34.5501 48.2558C35.5393 46.4652 36.7229 44.7891 38.0793 43.2578" fill="#0099F5"/>
<path d="M33.8701 49.4866L34.5501 48.2558C35.5393 46.4652 36.7229 44.7891 38.0793 43.2578" stroke="#0E3844" stroke-linejoin="bevel"/>
<path d="M21.1408 31.1662C18.5024 29.6974 15.8504 29.1262 13.5928 30.4862C13.5928 30.4862 14.0212 37.7758 24.874 37.9186C26.8177 37.9589 28.7222 38.4724 30.4228 39.4146C29.128 37.8977 27.75 36.4539 26.2952 35.0898" fill="#0099F5"/>
<path d="M21.1408 31.1662C18.5024 29.6974 15.8504 29.1262 13.5928 30.4862C13.5928 30.4862 14.0212 37.7758 24.874 37.9186C26.8177 37.9589 28.7222 38.4724 30.4228 39.4146C29.128 37.8977 27.75 36.4539 26.2952 35.0898" stroke="#0E3844" stroke-linejoin="bevel"/>
<path d="M33.8704 44.7444L33.1904 43.5204C32.2098 41.724 31.0281 40.0449 29.668 38.5156" fill="#0099F5"/>
<path d="M33.8704 44.7444L33.1904 43.5204C32.2098 41.724 31.0281 40.0449 29.668 38.5156" stroke="#0E3844" stroke-linejoin="bevel"/>
<path d="M33.7817 27.8877C37.1993 27.8877 39.9697 25.1173 39.9697 21.6997C39.9697 18.2822 37.1993 15.5117 33.7817 15.5117C30.3642 15.5117 27.5938 18.2822 27.5938 21.6997C27.5938 25.1173 30.3642 27.8877 33.7817 27.8877Z" fill="#FBA543" stroke="#0E3844" stroke-miterlimit="10"/>
<path d="M29.4639 59.0372C29.4639 57.8649 29.9295 56.7407 30.7585 55.9118C31.5874 55.0829 32.7116 54.6172 33.8839 54.6172C35.0561 54.6172 36.1804 55.0829 37.0093 55.9118C37.8382 56.7407 38.3039 57.8649 38.3039 59.0372" fill="#0064F4"/>
<path d="M29.4639 59.0372C29.4639 57.8649 29.9295 56.7407 30.7585 55.9118C31.5874 55.0829 32.7116 54.6172 33.8839 54.6172C35.0561 54.6172 36.1804 55.0829 37.0093 55.9118C37.8382 56.7407 38.3039 57.8649 38.3039 59.0372" stroke="#0E3844" stroke-linejoin="bevel"/>
</svg>
