<svg width="68" height="68" viewBox="0 0 68 68" fill="none" xmlns="http://www.w3.org/2000/svg">
<path d="M40.1475 53.1016C51.0648 53.1016 59.9151 44.2514 59.9151 33.334C59.9151 22.4167 51.0648 13.5664 40.1475 13.5664C29.2301 13.5664 20.3799 22.4167 20.3799 33.334C20.3799 44.2514 29.2301 53.1016 40.1475 53.1016Z" fill="#0099F5" stroke="#0E3844" stroke-linejoin="bevel"/>
<path d="M54.7333 40.1198C54.0533 40.7998 54.5225 39.4806 53.5705 39.841C52.6185 40.2014 51.4762 41.575 50.4902 41.881C49.3682 42.2618 48.7494 42.3637 48.4502 42.8873C48.4502 42.8873 46.8182 45.6753 47.0902 45.9677C47.3622 46.2601 49.8102 44.6078 49.8102 45.4238C49.8102 46.2398 49.2458 47.2938 51.0002 46.2398C52.7546 45.1858 54.1213 43.9958 54.7061 41.9558C55.2909 39.9158 55.3997 39.4398 54.7333 40.1198Z" fill="#FFD44D"/>
<path d="M47.7502 35.3592C47.3354 35.3592 46.567 33.7 46.431 34.55C46.8744 35.0061 47.199 35.5642 47.3762 36.1752C47.6686 37.1884 48.0562 38.0656 48.4506 38.0656C48.845 38.0656 49.3618 37.3856 48.845 36.6648C48.3282 35.944 48.3214 35.7196 48.4234 35.6244C48.5018 35.3546 48.5098 35.0693 48.4468 34.7955C48.3837 34.5217 48.2515 34.2687 48.063 34.0604C47.5054 33.3804 47.4442 33.3804 47.4442 32.918C47.4442 32.7208 47.4442 32.408 47.3898 32.1156C48.0698 32.952 48.7498 33.6184 49.0762 33.4756C49.5862 33.2376 50.4906 31.932 49.9262 31.082C49.3618 30.232 48.3554 29.3208 50.103 29.1508C51.8506 28.9808 52.3062 26.594 51.2318 25.5196C50.1574 24.4452 52.6462 22.7996 51.1162 21.3172C49.5862 19.8348 51.7962 17.8492 50.2662 17.2372C48.7362 16.6252 44.1462 17.0128 41.9226 16.1628C39.699 15.3128 39.087 15.9316 36.8158 16.6184C34.5446 17.3052 33.6402 16.2784 32.389 16.5572C31.1378 16.836 29.0978 17.856 28.989 19.0528C28.8802 20.2496 27.3366 19.896 26.5206 21.0792C25.7046 22.2624 24.3718 23.1192 24.4806 24.4452C24.4194 24.5064 21.9102 27.1652 21.9102 30.5652C21.9102 33.9652 22.2366 34.1284 22.8962 34.5228C23.5558 34.9172 25.011 34.788 25.011 35.978C25.011 37.168 26.0038 38.7456 27.051 40.5272C28.0982 42.3088 30.451 46.5928 31.6002 45.6068C32.7494 44.6208 33.1914 41.7172 32.1306 39.7996C31.0698 37.882 32.0626 37.032 33.2526 35.0804C34.4426 33.1288 34.2998 32.4148 32.8582 32.1496C31.7362 31.9456 31.0086 29.1032 30.281 27.3896C30.3721 27.3927 30.4612 27.4178 30.5405 27.4628C30.6199 27.5078 30.6871 27.5713 30.7366 27.648C31.0766 28.158 31.811 31.2248 33.001 31.4492C34.191 31.6736 36.5778 29.1236 35.6734 28.838C34.769 28.5524 33.2322 26.9204 33.5178 26.118C34.5351 27.1965 35.9215 27.852 37.4006 27.954C39.6106 28.0084 39.2774 29.7696 40.2362 31.6396C41.195 33.5096 41.2562 33.7408 41.8818 33.2308C42.5074 32.7208 42.3374 31.0752 43.2418 30.1708C44.1462 29.2664 45.4926 29.5996 46.4242 30.8508L46.8594 31.4288C46.8594 31.4288 47.0702 33.5776 47.3558 33.7408C47.6414 33.904 48.165 35.4 47.7502 35.3592ZM29.6826 26.2472C28.6966 25.2612 26.7178 25.9208 26.1942 25.1932L25.9018 24.792C26.1874 24.588 26.3982 24.3228 26.3778 24.112C26.3166 23.568 26.2622 22.752 27.2278 22.6024C28.1934 22.4528 27.6834 23.058 28.4178 23.568C29.1522 24.078 30.9134 23.432 30.9134 24.4384C30.9526 24.8363 30.8508 25.2354 30.6259 25.5659C30.4009 25.8965 30.0671 26.1376 29.6826 26.2472Z" fill="#FFD44D"/>
<path d="M51.1295 34.9112C50.7487 35.1764 49.7695 35.462 49.7695 35.7884C49.7695 35.7884 49.7695 37.026 50.1299 37.3184C50.4903 37.6108 51.1363 37.7876 51.3539 37.4816C51.5715 37.1756 52.3875 36.074 52.2515 35.7884C52.1155 35.5028 51.8571 35.224 52.1223 34.9112C52.3875 34.5984 52.0135 34 51.8095 34C51.6055 34 51.5103 34.68 51.1295 34.9112Z" fill="#FFD44D"/>
<path d="M50.6333 38.4966C49.8173 38.1906 48.6409 37.9526 48.7293 38.4966C48.7293 38.4966 49.8717 38.8298 50.7693 38.9794C51.6669 39.129 53.1425 39.1562 52.9657 38.8502C52.7889 38.5442 51.4561 38.8094 50.6333 38.4966Z" fill="#FFD44D"/>
<path d="M52.8367 36.5649C52.8367 36.5649 52.2859 36.4765 52.1567 36.7417C52.0275 37.0069 51.6739 37.7073 51.8371 37.9521C52.0003 38.1969 52.2723 37.2721 52.3267 37.4897C52.3811 37.7073 52.5987 38.3669 52.7075 37.8365C52.8163 37.3061 52.7075 37.0681 52.8639 36.9593C53.0203 36.8505 53.1495 36.5785 52.8367 36.5649Z" fill="#FFD44D"/>
<path d="M52.6597 36.1272C52.6597 36.1272 53.4689 36.0184 53.5573 35.8348C53.6457 35.6512 52.1973 35.862 52.6597 36.1272Z" fill="#FFD44D"/>
<path d="M56.4404 38.4321C56.7464 37.9901 56.5288 37.5277 56.2636 37.0721C55.9984 36.6165 55.74 37.0721 55.366 36.9633C54.992 36.8545 54.8628 35.8821 54.4004 36.5757C54.4907 36.7526 54.6002 36.9191 54.7268 37.0721C54.9036 37.2693 54.618 37.5821 54.992 37.9085C55.366 38.2349 54.924 38.6293 54.992 38.8741C55.06 39.1189 55.4272 39.4657 55.672 39.1121C55.9168 38.7585 56.0664 38.7857 56.0664 39.1121C56.0664 39.4385 56.2228 39.7921 56.4608 39.4929C56.6988 39.1937 56.1276 38.8673 56.4404 38.4321Z" fill="#FFD44D"/>
<path d="M15.5859 56.2708L38.3455 30.4648L19.7135 49.4776L15.5859 56.2708Z" fill="#FBA543" stroke="#0A2A33" stroke-miterlimit="10"/>
<path d="M18.3195 37.3396L38.3455 30.4648L25.9355 59.8612L19.7135 49.4776L16.1435 46.438L5.59668 41.712L12.6687 39.2844" fill="#FBA543"/>
<path d="M18.3195 37.3396L38.3455 30.4648L25.9355 59.8612L19.7135 49.4776L16.1435 46.438L5.59668 41.712L12.6687 39.2844" stroke="#0A2A33" stroke-miterlimit="10"/>
<path d="M15.5859 56.2708L16.1435 46.438L38.3455 30.4648L19.7135 49.4776L15.5859 56.2708Z" fill="#0A2A33" stroke="#0A2A33" stroke-miterlimit="10"/>
<path d="M50.64 12.9414C49.0152 12.9403 47.4339 13.4666 46.1338 14.4412C44.8337 15.4158 43.8851 16.786 43.4305 18.346C42.9759 19.9059 43.04 21.5712 43.6129 23.0917C44.1859 24.6121 45.2369 25.9055 46.608 26.7774V28.8334H54.844V26.6734C56.1745 25.7724 57.1811 24.4684 57.7158 22.9531C58.2505 21.4378 58.2852 19.7909 57.8148 18.2544C57.3444 16.7179 56.3937 15.3727 55.1023 14.4164C53.8109 13.4601 52.2469 12.9431 50.64 12.9414Z" fill="#231F20" fill-opacity="0.48"/>
<path d="M46.6084 28.832H54.8444V30.304C54.8444 31.0721 54.5393 31.8087 53.9962 32.3518C53.4531 32.8949 52.7165 33.2 51.9484 33.2H49.5084C48.7403 33.2 48.0037 32.8949 47.4606 32.3518C46.9175 31.8087 46.6124 31.0721 46.6124 30.304V28.832H46.6084Z" fill="#231F20" fill-opacity="0.48"/>
<path d="M51.0275 35.0547H50.4475C50.282 35.0547 50.1182 35.0222 49.9653 34.9588C49.8124 34.8955 49.6735 34.8027 49.5565 34.6857C49.4395 34.5687 49.3467 34.4298 49.2834 34.2769C49.2201 34.1241 49.1875 33.9602 49.1875 33.7947V33.2188H52.2875V33.7947C52.2875 34.1289 52.1548 34.4494 51.9185 34.6857C51.6822 34.922 51.3617 35.0547 51.0275 35.0547Z" fill="#231F20" fill-opacity="0.48"/>
<path d="M52.64 11.9414C51.0152 11.9403 49.4339 12.4666 48.1338 13.4412C46.8337 14.4158 45.8851 15.786 45.4305 17.346C44.9759 18.9059 45.04 20.5712 45.6129 22.0917C46.1859 23.6121 47.2369 24.9055 48.608 25.7774V27.8334H56.844V25.6734C58.1745 24.7724 59.1811 23.4684 59.7158 21.9531C60.2505 20.4378 60.2852 18.7909 59.8148 17.2544C59.3444 15.7179 58.3937 14.3727 57.1023 13.4164C55.8109 12.4601 54.2469 11.9431 52.64 11.9414Z" fill="#FFD44D"/>
<path d="M48.6084 27.832H56.8444V29.304C56.8444 30.0721 56.5393 30.8087 55.9962 31.3518C55.4531 31.8949 54.7165 32.2 53.9484 32.2H51.5084C50.7403 32.2 50.0037 31.8949 49.4606 31.3518C48.9175 30.8087 48.6124 30.0721 48.6124 29.304V27.832H48.6084Z" fill="#0064F4"/>
<path d="M53.0275 34.0547H52.4475C52.282 34.0547 52.1182 34.0222 51.9653 33.9588C51.8124 33.8955 51.6735 33.8027 51.5565 33.6857C51.4395 33.5687 51.3467 33.4298 51.2834 33.2769C51.2201 33.1241 51.1875 32.9602 51.1875 32.7947V32.2188H54.2875V32.7947C54.2875 33.1289 54.1548 33.4494 53.9185 33.6857C53.6822 33.922 53.3617 34.0547 53.0275 34.0547Z" fill="#0099F5"/>
<path d="M49.1963 20.71L53.6203 14.75L52.8723 18.702H55.9283L51.8163 24.71L52.2923 20.77L49.1963 20.71Z" fill="#FBA543"/>
<path d="M48.6084 27.8359H56.8444V29.3079C56.8444 30.076 56.5393 30.8126 55.9962 31.3557C55.4531 31.8988 54.7165 32.2039 53.9484 32.2039H51.5084C50.7403 32.2039 50.0037 31.8988 49.4606 31.3557C48.9175 30.8126 48.6124 30.076 48.6124 29.3079V27.8359H48.6084Z" stroke="#0E3844" stroke-linejoin="round"/>
<path d="M53.0158 34.0391H52.4358C52.1016 34.0391 51.7811 33.9064 51.5448 33.6701C51.3085 33.4338 51.1758 33.1133 51.1758 32.7791V32.2031H54.2758V32.7791C54.2758 33.1133 54.143 33.4338 53.9067 33.6701C53.6704 33.9064 53.35 34.0391 53.0158 34.0391Z" stroke="#0E3844" stroke-linejoin="round"/>
<path d="M46.2999 15.4276C45.2344 17.1067 44.8789 19.1401 45.3117 21.0812C45.7444 23.0222 46.93 24.7121 48.6079 25.7796V27.8356H56.8439V25.6756C57.6756 25.1061 58.3841 24.375 58.9271 23.5259C59.4702 22.6767 59.8367 21.727 60.0049 20.7331C60.173 19.7393 60.1393 18.7218 59.9058 17.7413C59.6723 16.7608 59.2438 15.8373 58.6457 15.026C58.0477 14.2146 57.2924 13.532 56.4249 13.0188C55.5574 12.5056 54.5954 12.1723 53.5964 12.0388C52.5973 11.9053 51.5816 11.9743 50.6098 12.2418C49.638 12.5093 48.73 12.9697 47.9399 13.5956" stroke="#0E3844" stroke-linejoin="round"/>
<path d="M51.5322 29.5117H56.5842" stroke="#0E3844" stroke-linejoin="round"/>
<path d="M49.1963 20.71L53.6203 14.75L52.8723 18.702H55.9283L51.8163 24.71L52.2923 20.77L49.1963 20.71Z" stroke="#0E3844" stroke-linejoin="round"/>
<path d="M52.54 6.20312V8.71913" stroke="#0E3844" stroke-linejoin="round"/>
<path d="M65.0796 18.7383H62.5596" stroke="#0E3844" stroke-linejoin="round"/>
<path d="M42.52 18.7383H40" stroke="#0E3844" stroke-linejoin="round"/>
<path d="M61.404 27.6082L59.624 25.8242" stroke="#0E3844" stroke-linejoin="round"/>
<path d="M45.4558 11.655L43.6758 9.875" stroke="#0E3844" stroke-linejoin="round"/>
<path d="M43.6758 27.6082L45.4558 25.8242" stroke="#0E3844" stroke-linejoin="round"/>
<path d="M59.624 11.655L61.404 9.875" stroke="#0E3844" stroke-linejoin="round"/>
</svg>
