<svg width="68" height="68" viewBox="0 0 68 68" fill="none" xmlns="http://www.w3.org/2000/svg">
<path d="M54.7675 28.3758L53.9039 28.9062L46.2403 33.6526C46.0156 33.788 45.7464 33.829 45.4915 33.7666C45.2367 33.7041 45.0169 33.5434 44.8803 33.3194L39.6239 24.8262C39.1063 23.987 38.8489 23.0133 38.884 22.028C38.9192 21.0426 39.2454 20.0898 39.8215 19.2897C40.3976 18.4895 41.1978 17.8779 42.1211 17.532C43.0444 17.1862 44.0495 17.1215 45.0095 17.3462C45.6482 17.4922 46.2513 17.764 46.7837 18.1458C47.3161 18.5276 47.7671 19.0117 48.1103 19.5698L48.6407 20.3994L49.5043 19.869C50.6292 19.1718 51.9847 18.9492 53.2735 19.25C54.5623 19.5509 55.6791 20.3506 56.3791 21.4738C56.7283 22.0323 56.9636 22.6543 57.0716 23.304C57.1796 23.9538 57.1581 24.6184 57.0083 25.2598C56.8585 25.9013 56.5835 26.5067 56.1989 27.0415C55.8143 27.5762 55.3279 28.0297 54.7675 28.3758Z" fill="#F0457D" stroke="#0E3844" stroke-miterlimit="10"/>
<path d="M32.8301 25.0372L32.1977 25.8396L26.5741 32.8505C26.4118 33.0475 26.1794 33.174 25.9257 33.2031C25.672 33.2323 25.417 33.1619 25.2141 33.0069L17.4009 26.7508C16.8859 26.3423 16.4565 25.8363 16.1374 25.2616C15.8182 24.6869 15.6156 24.0548 15.541 23.4017C15.4665 22.7486 15.5215 22.0872 15.703 21.4553C15.8845 20.8235 16.1888 20.2337 16.5985 19.7196C17.4283 18.6891 18.6323 18.029 19.9474 17.8838C21.2624 17.7385 22.5815 18.1198 23.6161 18.9445L24.4049 19.5836L25.0373 18.788C25.8671 17.7575 27.0711 17.0974 28.3861 16.9522C29.7012 16.8069 31.0203 17.1882 32.0549 18.0128C32.5677 18.4227 32.9946 18.9297 33.3112 19.5048C33.6278 20.0799 33.8278 20.7117 33.8998 21.3642C33.9718 22.0167 33.9144 22.677 33.7308 23.3073C33.5473 23.9376 33.2412 24.5254 32.8301 25.0372Z" fill="#E8C545" stroke="#0E3844" stroke-miterlimit="10"/>
<path d="M40.0925 14.9062L41.3369 21.9239L47.8241 24.8751L41.5341 28.2274L40.7385 35.3062L35.5977 30.3626L28.6209 31.7906L31.7353 25.3782L28.2197 19.1767L35.2781 20.1626L38.3109 14.9062H40.0925Z" fill="#0A2A33" stroke="#0A2A33" stroke-miterlimit="10"/>
<path d="M38.3113 14.9062L39.5625 21.9239L46.0497 24.8751L39.7597 28.2274L38.9573 35.3062L33.8233 30.3626L26.8397 31.7906L29.9541 25.3782L26.4385 19.1767L33.5037 20.1626L38.3113 14.9062Z" fill="#0099F5" stroke="#0E3844" stroke-linejoin="bevel"/>
<path d="M47.3692 35.6934C46.8116 36.2442 47.1924 35.1562 46.3968 35.4554C45.6012 35.7546 44.6424 36.9106 43.8128 37.1894C42.8744 37.509 42.3576 37.5974 42.106 38.0326C42.106 38.0326 40.746 40.365 40.9568 40.6098C41.1676 40.8546 43.2552 39.4946 43.2552 40.1542C43.2552 40.8138 42.7724 41.7318 44.2684 40.8342C45.7644 39.9366 46.8796 38.9506 47.3692 37.2438C47.8588 35.537 47.9268 35.1358 47.3692 35.6934Z" fill="#E8C545"/>
<path d="M44.3498 31.3632C44.0302 31.5808 43.1802 31.8256 43.2006 32.0976C43.2006 32.0976 43.2006 33.1312 43.4998 33.376C43.799 33.6208 44.3498 33.7704 44.5266 33.512C44.7034 33.2536 45.3902 32.3288 45.2814 32.0976C45.1726 31.8664 44.9482 31.6216 45.1726 31.3632C45.397 31.1048 45.091 30.6016 44.921 30.6016C44.751 30.6016 44.6694 31.1388 44.3498 31.3632Z" fill="#E8C545"/>
<path d="M43.935 34.3615C43.255 34.1031 42.2622 33.8991 42.337 34.3615C42.337 34.3615 43.2958 34.6403 44.0302 34.7627C44.7646 34.8851 46.0226 34.9123 45.873 34.6539C45.7234 34.3955 44.6218 34.6199 43.935 34.3615Z" fill="#E8C545"/>
<path d="M45.778 32.7424C45.778 32.7424 45.3156 32.6676 45.1932 32.892C45.0708 33.1164 44.7784 33.7012 44.9212 33.8984C45.064 34.0956 45.2816 33.3136 45.3292 33.5176C45.3768 33.7216 45.5604 34.252 45.6488 33.81C45.7372 33.368 45.6488 33.164 45.778 33.0756C45.9072 32.9872 46.0432 32.7492 45.778 32.7424Z" fill="#E8C545"/>
<path d="M45.628 32.3746C45.628 32.3746 46.308 32.2862 46.3828 32.1298C46.4576 31.9734 45.2472 32.1502 45.628 32.3746Z" fill="#E8C545"/>
<path d="M48.7898 34.3075C49.0482 33.9403 48.8646 33.5527 48.647 33.1515C48.4294 32.7503 48.205 33.1515 47.8922 33.0563C47.5794 32.9611 47.4706 32.1519 47.083 32.7299C47.1591 32.8809 47.2527 33.0224 47.3618 33.1515C47.5046 33.3147 47.2666 33.5731 47.5794 33.8315C47.8922 34.0899 47.525 34.4367 47.5794 34.6407C47.6338 34.8447 47.9398 35.1371 48.1302 34.8447C48.3206 34.5523 48.4634 34.5659 48.4634 34.8447C48.4634 35.1235 48.5926 35.4363 48.7898 35.1575C48.987 34.8787 48.5382 34.6815 48.7898 34.3075Z" fill="#E8C545"/>
<path d="M12.6002 52.5229H20.8486L20.2434 50.0273H12.5322L12.6002 52.5229Z" fill="#0A2A33" stroke="#0A2A33" stroke-linejoin="round"/>
<path d="M47.7159 53.8297H27.4451L22.0527 28.0781H55.3251L50.3815 51.6809C50.2507 52.2903 49.9145 52.8362 49.4293 53.2274C48.944 53.6185 48.3392 53.8312 47.7159 53.8297Z" fill="#0A2A33" stroke="#0A2A33" stroke-miterlimit="10"/>
<path d="M56.8139 28.7109L55.8551 33.3213C55.7465 33.8058 55.4755 34.2385 55.0872 34.5477C54.6988 34.8569 54.2163 35.0241 53.7199 35.0213H50.8231L49.5039 28.7109H56.8139Z" fill="#0A2A33" stroke="#0A2A33" stroke-miterlimit="10"/>
<path d="M40.8472 53.8297H23.2624C22.6404 53.8296 22.0371 53.6162 21.5533 53.2252C21.0695 52.8342 20.7343 52.2891 20.6036 51.6809L15.6396 28.0781H48.9596L44.118 51.1981C43.9597 51.9466 43.5477 52.6173 42.9517 53.0969C42.3556 53.5764 41.6122 53.8353 40.8472 53.8297Z" fill="#FBA543" stroke="#0A2A33" stroke-linejoin="bevel"/>
<path d="M50.1634 28.7109L49.123 33.6613C49.042 34.0453 48.8317 34.3898 48.5273 34.6374C48.2228 34.8849 47.8426 35.0204 47.4502 35.0213H16.1702C15.7766 35.022 15.3948 34.8872 15.089 34.6395C14.7831 34.3918 14.5718 34.0464 14.4906 33.6613L13.4502 28.7109H50.1634Z" fill="#FBA543" stroke="#0A2A33" stroke-linejoin="bevel"/>
<path d="M22.0525 39.4417L30.4777 31.1049C30.7811 30.8026 31.1919 30.6328 31.6201 30.6328C32.0484 30.6328 32.4592 30.8026 32.7625 31.1049C33.0648 31.4082 33.2346 31.819 33.2346 32.2473C33.2346 32.6755 33.0648 33.0863 32.7625 33.3897L13.8653 52.0149C13.5325 52.3475 13.0812 52.5343 12.6107 52.5343C12.1402 52.5343 11.6889 52.3475 11.3561 52.0149L11.2541 51.9129C11.1324 51.7916 11.0358 51.6474 10.9699 51.4887C10.904 51.33 10.8701 51.1599 10.8701 50.9881C10.8701 50.8162 10.904 50.6461 10.9699 50.4874C11.0358 50.3287 11.1324 50.1846 11.2541 50.0633L16.6941 44.7185" fill="#F0457D"/>
<path d="M22.0525 39.4417L30.4777 31.1049C30.7811 30.8026 31.1919 30.6328 31.6201 30.6328C32.0484 30.6328 32.4592 30.8026 32.7625 31.1049C33.0648 31.4082 33.2346 31.819 33.2346 32.2473C33.2346 32.6755 33.0648 33.0863 32.7625 33.3897L13.8653 52.0149C13.5325 52.3475 13.0812 52.5343 12.6107 52.5343C12.1402 52.5343 11.6889 52.3475 11.3561 52.0149L11.2541 51.9129C11.1324 51.7916 11.0358 51.6474 10.9699 51.4887C10.904 51.33 10.8701 51.1599 10.8701 50.9881C10.8701 50.8162 10.904 50.6461 10.9699 50.4874C11.0358 50.3287 11.1324 50.1846 11.2541 50.0633L16.6941 44.7185" stroke="#0E3844" stroke-miterlimit="10"/>
</svg>
