<svg width="68" height="68" viewBox="0 0 68 68" fill="none" xmlns="http://www.w3.org/2000/svg">
<path d="M33.8169 34.964C39.6793 34.964 44.4317 30.2116 44.4317 24.3492C44.4317 18.4868 39.6793 13.7344 33.8169 13.7344C27.9546 13.7344 23.2021 18.4868 23.2021 24.3492C23.2021 30.2116 27.9546 34.964 33.8169 34.964Z" fill="#0099F5"/>
<path d="M33.817 28.8509C36.3032 28.8509 38.3186 26.8354 38.3186 24.3493C38.3186 21.8631 36.3032 19.8477 33.817 19.8477C31.3309 19.8477 29.3154 21.8631 29.3154 24.3493C29.3154 26.8354 31.3309 28.8509 33.817 28.8509Z" fill="white"/>
<path d="M47.0496 23.0938H43.6904V25.6098H47.0496V23.0938Z" fill="#BC175A"/>
<path d="M23.9363 23.0938H20.5771V25.6098H23.9363V23.0938Z" fill="#BC175A"/>
<path d="M35.0678 11.1172H32.5518V14.4764H35.0678V11.1172Z" fill="#BC175A"/>
<path d="M35.0678 34.2305H32.5518V37.5897H35.0678V34.2305Z" fill="#BC175A"/>
<path d="M59.2754 37.1815V34.2031H57.9834V37.0931L59.2754 37.1815Z" fill="#0099F5"/>
<path d="M28.9002 44.8318V50.9994C28.8872 52.3457 28.4306 53.6502 27.6011 54.7108C26.7716 55.7713 25.6156 56.5288 24.312 56.8657C23.0084 57.2026 21.6301 57.1003 20.3906 56.5745C19.1511 56.0487 18.1195 55.1288 17.4558 53.9574L8.575 37.9774C8.42553 37.7089 8.34888 37.4061 8.35267 37.0988C8.35646 36.7916 8.44056 36.4907 8.59661 36.2261C8.75266 35.9614 8.97524 35.7422 9.24224 35.5901C9.50923 35.4381 9.81136 35.3585 10.1186 35.3594H19.4074C19.8111 35.3582 20.2038 35.4911 20.5238 35.7373C20.8438 35.9834 21.073 36.3289 21.1754 36.7194C21.1754 36.7194 22.6102 41.3706 23.5146 43.6962V43.737L23.569 43.8798C23.841 44.5598 24.0586 45.0018 24.1538 44.9814C24.249 44.961 25.7858 43.5194 25.7858 43.5194C25.8922 43.4071 26.0162 43.3129 26.153 43.2406C26.4313 43.0766 26.7482 42.9896 27.0713 42.9884C27.3943 42.9873 27.7118 43.072 27.9913 43.2339C28.2708 43.3958 28.5023 43.629 28.662 43.9098C28.8217 44.1906 28.9039 44.5088 28.9002 44.8318Z" fill="#0099F5"/>
<path d="M9.26862 37.5975L8.35742 37.1487V34.0547L10.1526 35.7411L9.26862 37.5975Z" fill="#0099F5"/>
<path d="M28.9003 41.7781V47.9729C28.8874 49.3193 28.4308 50.6238 27.6013 51.6843C26.7718 52.7449 25.6157 53.5023 24.3121 53.8392C23.0085 54.1761 21.6302 54.0738 20.3907 53.548C19.1512 53.0222 18.1197 52.1024 17.4559 50.9309L8.57514 34.9237C8.42733 34.6555 8.35202 34.3533 8.35665 34.0471C8.36128 33.7409 8.44568 33.4411 8.60154 33.1775C8.75739 32.9138 8.97931 32.6954 9.24538 32.5437C9.51144 32.392 9.81247 32.3123 10.1187 32.3125H19.4075C19.8113 32.3113 20.2039 32.4443 20.5239 32.6904C20.8439 32.9366 21.0731 33.282 21.1755 33.6725C21.1755 33.6725 22.6103 38.3237 23.5147 40.6493V40.6901L23.5691 40.8329C23.8411 41.5129 24.0587 41.9549 24.1539 41.9345C24.2491 41.9141 25.7723 40.4861 25.7723 40.4861C25.8788 40.3738 26.0028 40.2796 26.1395 40.2073C26.4167 40.0408 26.7331 39.9511 27.0564 39.9472C27.3797 39.9434 27.6982 40.0257 27.9792 40.1856C28.2602 40.3454 28.4936 40.5772 28.6555 40.8571C28.8174 41.1369 28.9019 41.4548 28.9003 41.7781Z" fill="#FBA543"/>
<path d="M38.7598 44.8318V50.9994C38.7727 52.3457 39.2293 53.6502 40.0588 54.7108C40.8883 55.7713 42.0444 56.5288 43.348 56.8657C44.6516 57.2026 46.0299 57.1003 47.2694 56.5745C48.5089 56.0487 49.5404 55.1288 50.2042 53.9574L59.051 37.9774C59.2004 37.7089 59.2771 37.4061 59.2733 37.0988C59.2695 36.7916 59.1854 36.4907 59.0294 36.2261C58.8733 35.9614 58.6507 35.7422 58.3837 35.5901C58.1167 35.4381 57.8146 35.3585 57.5074 35.3594H48.2186C47.8149 35.3582 47.4222 35.4911 47.1022 35.7373C46.7822 35.9834 46.553 36.3289 46.4506 36.7194C46.4506 36.7194 45.0226 41.3706 44.1182 43.6962V43.737L44.0638 43.8798C43.7918 44.5598 43.5742 45.0018 43.479 44.9814C43.3838 44.961 41.8402 43.5194 41.8402 43.5194C41.7366 43.4068 41.6147 43.3126 41.4798 43.2406C41.2018 43.0856 40.8883 43.0058 40.57 43.0091C40.2518 43.0124 39.94 43.0987 39.6653 43.2593C39.3906 43.42 39.1626 43.6496 39.0038 43.9254C38.845 44.2011 38.7609 44.5136 38.7598 44.8318Z" fill="#0099F5"/>
<path d="M17.2862 41.4585H15.967L10.833 32.3125H12.1522L17.2862 41.4585Z" fill="#0064F4"/>
<path d="M20.8699 41.4585H19.6187L15.6475 32.3125H16.8919L20.8699 41.4585Z" fill="#0064F4"/>
<path d="M50.1703 50.9309L59.0511 34.9237C59.1989 34.6555 59.2742 34.3533 59.2696 34.0471C59.2649 33.7409 59.1805 33.4411 59.0247 33.1775C58.8688 32.9138 58.6469 32.6954 58.3808 32.5437C58.1148 32.392 57.8137 32.3123 57.5075 32.3125H48.2187C47.815 32.3113 47.4223 32.4443 47.1023 32.6904C46.7823 32.9366 46.5531 33.282 46.4507 33.6725C46.4507 33.6725 45.0227 38.3237 44.1183 40.6493V40.6901L44.0639 40.8329C43.7919 41.5129 43.5743 41.9549 43.4791 41.9345C43.3839 41.9141 41.8607 40.4861 41.8607 40.4861C41.7571 40.3736 41.6352 40.2793 41.5003 40.2073C41.2238 40.0531 40.9121 39.9733 40.5956 39.9757C40.2791 39.9781 39.9686 40.0625 39.6945 40.2208C39.4204 40.3791 39.1921 40.6058 39.0318 40.8788C38.8716 41.1517 38.7849 41.4616 38.7803 41.7781V47.9729C38.8129 49.3021 39.2776 50.5844 40.1039 51.626C40.9302 52.6676 42.0732 53.4118 43.3601 53.746C44.647 54.0802 46.0077 53.9863 47.2364 53.4784C48.4651 52.9704 49.495 52.0762 50.1703 50.9309Z" fill="#FBA543"/>
<path d="M50.3408 41.4585H51.66L56.794 32.3125H55.4748L50.3408 41.4585Z" fill="#0064F4"/>
<path d="M46.7637 41.4585H48.0081L51.9793 32.3125H50.7349L46.7637 41.4585Z" fill="#0064F4"/>
<path d="M23.5488 21.649C24.091 19.5904 25.2393 17.7422 26.8446 16.3442C28.45 14.9461 30.4385 14.0628 32.552 13.8086" stroke="#0E3844" stroke-miterlimit="10"/>
<path d="M32.5517 34.8893C30.2175 34.6107 28.0419 33.5645 26.3668 31.9152C24.6917 30.2659 23.6118 28.1069 23.2969 25.7773" stroke="#0E3844" stroke-miterlimit="10"/>
<path d="M43.8465 27.832C43.2791 29.461 42.324 30.9274 41.0635 32.105C39.803 33.2825 38.275 34.1358 36.6113 34.5912" stroke="#0E3844" stroke-miterlimit="10"/>
<path d="M37.3389 14.332C39.2122 14.9952 40.8625 16.1696 42.1027 17.7223C43.343 19.2751 44.1237 21.144 44.3565 23.1176" stroke="#0E3844" stroke-miterlimit="10"/>
<path d="M33.817 28.8509C36.3032 28.8509 38.3186 26.8354 38.3186 24.3493C38.3186 21.8631 36.3032 19.8477 33.817 19.8477C31.3309 19.8477 29.3154 21.8631 29.3154 24.3493C29.3154 26.8354 31.3309 28.8509 33.817 28.8509Z" stroke="#0E3844" stroke-miterlimit="10"/>
<path d="M47.0496 23.0938H43.6904V25.6098H47.0496V23.0938Z" stroke="#0E3844" stroke-miterlimit="10"/>
<path d="M23.9363 23.0938H20.5771V25.6098H23.9363V23.0938Z" stroke="#0E3844" stroke-miterlimit="10"/>
<path d="M35.0678 11.1172H32.5518V14.4764H35.0678V11.1172Z" stroke="#0E3844" stroke-miterlimit="10"/>
<path d="M35.0678 34.2305H32.5518V37.5897H35.0678V34.2305Z" stroke="#0E3844" stroke-miterlimit="10"/>
<path d="M59.2764 37.1815V34.2031" stroke="#0E3844" stroke-miterlimit="10"/>
<path d="M28.9004 44.831V50.9986C28.8874 52.3449 28.4308 53.6494 27.6013 54.71C26.7718 55.7705 25.6157 56.5279 24.3122 56.8649C23.0086 57.2018 21.6303 57.0994 20.3908 56.5737C19.1513 56.0479 18.1197 55.128 17.456 53.9566L8.5752 37.9766" stroke="#0E3844" stroke-miterlimit="10"/>
<path d="M8.57514 34.9237C8.42733 34.6555 8.35202 34.3533 8.35665 34.0471C8.36128 33.7409 8.44568 33.4411 8.60154 33.1775C8.75739 32.9138 8.97931 32.6954 9.24538 32.5437C9.51144 32.392 9.81247 32.3123 10.1187 32.3125H19.4075C19.8113 32.3113 20.2039 32.4443 20.5239 32.6904C20.8439 32.9366 21.0731 33.282 21.1755 33.6725C21.1755 33.6725 22.6103 38.3237 23.5147 40.6493V40.6901L23.5691 40.8329C23.8411 41.5129 24.0587 41.9549 24.1539 41.9345C24.2491 41.9141 25.7723 40.4861 25.7723 40.4861C25.8788 40.3738 26.0028 40.2796 26.1395 40.2073C26.4157 40.051 26.7278 39.9695 27.0451 39.9709C27.3624 39.9723 27.6738 40.0565 27.9486 40.2151C28.2233 40.3738 28.4519 40.6015 28.6117 40.8756C28.7715 41.1497 28.8569 41.4608 28.8595 41.7781V47.9729" stroke="#0E3844" stroke-miterlimit="10"/>
<path d="M38.7607 44.831V50.9986C38.7737 52.3449 39.2303 53.6494 40.0598 54.71C40.8893 55.7705 42.0454 56.5279 43.349 56.8649C44.6525 57.2018 46.0308 57.0994 47.2704 56.5737C48.5099 56.0479 49.5414 55.128 50.2051 53.9566L59.0519 37.9766" stroke="#0E3844" stroke-miterlimit="10"/>
<path d="M50.1703 50.9309L59.0511 34.9237C59.1989 34.6555 59.2742 34.3533 59.2696 34.0471C59.2649 33.7409 59.1805 33.4411 59.0247 33.1775C58.8688 32.9138 58.6469 32.6954 58.3808 32.5437C58.1148 32.392 57.8137 32.3123 57.5075 32.3125H48.2187C47.815 32.3113 47.4223 32.4443 47.1023 32.6904C46.7823 32.9366 46.5531 33.282 46.4507 33.6725C46.4507 33.6725 45.0227 38.3237 44.1183 40.6493V40.6901L44.0639 40.8329C43.7919 41.5129 43.5743 41.9549 43.4791 41.9345C43.3839 41.9141 41.8607 40.4861 41.8607 40.4861C41.7571 40.3736 41.6352 40.2793 41.5003 40.2073C41.2238 40.0531 40.9121 39.9733 40.5956 39.9757C40.2791 39.9781 39.9686 40.0625 39.6945 40.2208C39.4204 40.3791 39.1921 40.6058 39.0318 40.8788C38.8716 41.1517 38.7849 41.4616 38.7803 41.7781V47.9729C38.8129 49.3021 39.2776 50.5844 40.1039 51.626C40.9302 52.6676 42.0732 53.4118 43.3601 53.746C44.647 54.0802 46.0077 53.9863 47.2364 53.4784C48.4651 52.9704 49.495 52.0762 50.1703 50.9309Z" stroke="#0E3844" stroke-miterlimit="10"/>
</svg>
