<svg xmlns="http://www.w3.org/2000/svg" width="21" height="16" viewBox="0 0 21 16">
  <g id="Group_3286" data-name="Group 3286" transform="translate(-1660 -65)">
    <path id="Rectangle_1015" data-name="Rectangle 1015" d="M3,0H7A0,0,0,0,1,7,0V16a0,0,0,0,1,0,0H3a3,3,0,0,1-3-3V3A3,3,0,0,1,3,0Z" transform="translate(1660 65)" fill="#008751"/>
    <rect id="Rectangle_1017" data-name="Rectangle 1017" width="7" height="16" transform="translate(1667 65)" fill="#fff"/>
    <path id="Rectangle_1016" data-name="Rectangle 1016" d="M0,0H4A3,3,0,0,1,7,3V13a3,3,0,0,1-3,3H0a0,0,0,0,1,0,0V0A0,0,0,0,1,0,0Z" transform="translate(1674 65)" fill="#008751"/>
  </g>
</svg>