<svg width="68" height="68" viewBox="0 0 68 68" fill="none" xmlns="http://www.w3.org/2000/svg">
<path d="M15.4971 36.3927L20.5563 26.7503C20.5563 26.7503 22.9975 29.1643 28.4987 26.0023C33.9999 22.8403 36.9919 30.0823 36.9919 30.0823L36.0943 31.9387L46.6819 39.8539C46.6819 39.8539 47.3619 43.0091 44.2679 43.1247C44.2679 43.1247 45.8931 44.8383 44.6555 45.8991C43.4179 46.9599 41.4799 46.2391 41.4799 46.2391C41.4799 46.2391 42.0919 48.0411 40.9087 48.7279C40.4875 48.9174 40.0309 49.0154 39.5691 49.0154C39.1072 49.0154 38.6506 48.9174 38.2295 48.7279C38.2295 48.7279 38.9095 50.2579 37.8759 50.9107C36.8423 51.5635 35.4483 50.9107 35.4483 50.9107L15.4971 36.3927Z" fill="#E8C545"/>
<path d="M22.7579 37.1552L20.3201 39.593C19.5819 40.3312 19.5819 41.5282 20.3201 42.2664L20.6086 42.5549C21.3469 43.2931 22.5438 43.2931 23.282 42.5549L25.7199 40.1171C26.4581 39.3788 26.4581 38.1819 25.7199 37.4437L25.4314 37.1552C24.6931 36.4169 23.4962 36.4169 22.7579 37.1552Z" fill="#FBA543"/>
<path d="M29.3571 48.4814L32.1367 45.3933C32.8351 44.6174 32.7723 43.4221 31.9963 42.7236L31.6931 42.4506C30.9171 41.7522 29.7218 41.815 29.0233 42.591L26.2437 45.6791C25.5453 46.4551 25.6081 47.6504 26.3841 48.3489L26.6874 48.6218C27.4634 49.3203 28.6587 49.2574 29.3571 48.4814Z" fill="#FBA543"/>
<path d="M26.3718 45.2314L29.1513 42.1433C29.8498 41.3673 29.7869 40.1721 29.011 39.4736L28.7077 39.2006C27.9317 38.5022 26.7364 38.565 26.038 39.341L23.2584 42.4291C22.5599 43.2051 22.6228 44.4004 23.3988 45.0989L23.702 45.3718C24.478 46.0703 25.6733 46.0074 26.3718 45.2314Z" fill="#FBA543"/>
<path d="M31.9783 45.761L30.0213 47.718C29.283 48.4562 29.283 49.6532 30.0213 50.3914L30.3098 50.6799C31.048 51.4181 32.245 51.4181 32.9832 50.6799L34.9402 48.7229C35.6784 47.9847 35.6784 46.7877 34.9402 46.0495L34.6517 45.761C33.9135 45.0227 32.7165 45.0227 31.9783 45.761Z" fill="#FBA543"/>
<path d="M21.6526 24.1548L13.9766 20.1094L6.21864 34.8298L13.8947 38.8752L21.6526 24.1548Z" fill="#0099F5"/>
<path d="M53.9411 38.4751L61.6172 34.4297L53.8593 19.7093L46.1832 23.7547L53.9411 38.4751Z" fill="#DB2868"/>
<path d="M47.4165 25.5938L44.1049 27.5318C44.1049 27.5318 40.1677 25.4918 37.6857 25.9338C35.2037 26.3757 30.2805 26.9538 29.4577 29.497C28.6349 32.0402 27.5741 35.617 30.0561 35.753C32.5381 35.889 32.5789 34.6514 33.3609 33.3662C34.1429 32.081 36.0809 31.5641 36.0809 31.5641L46.7229 40.173L52.8973 36.3922L47.4165 25.5938Z" fill="#FBA543"/>
<path d="M21.6447 24.1565L14.0469 20.1523L6.28896 34.8728L13.8868 38.877L21.6447 24.1565Z" stroke="#0E3844" stroke-linejoin="round"/>
<path d="M53.9959 38.4768L61.5938 34.4727L53.8358 19.7522L46.238 23.7564L53.9959 38.4768Z" stroke="#0E3844" stroke-linejoin="round"/>
<path d="M15.1982 36.3945L20.407 40.1413" stroke="#0E3844" stroke-linejoin="round"/>
<path d="M20.5566 26.2208C20.5566 26.2208 21.7602 28.3016 25.1602 27.3768C28.5602 26.452 30.6002 23.8 34.2586 26.6016" stroke="#0E3844" stroke-linejoin="round"/>
<path d="M47.1983 25.5938L43.9683 27.6338C43.9683 27.6338 40.7995 25.5937 37.3587 25.9813C35.6651 26.2419 33.9973 26.6491 32.3743 27.1986C31.4081 27.5125 30.5517 28.0959 29.906 28.8802C29.2603 29.6645 28.8521 30.6169 28.7295 31.6253L28.5187 33.3186C28.467 33.6964 28.5128 34.0813 28.6518 34.4365C28.7907 34.7917 29.0181 35.1055 29.3125 35.348C29.6068 35.5906 29.9583 35.7539 30.3335 35.8224C30.7087 35.8908 31.0952 35.8623 31.4563 35.7394C31.7922 35.6128 32.0952 35.4118 32.3425 35.1516C32.5898 34.8913 32.775 34.5785 32.8843 34.2365C33.1957 33.4321 33.7241 32.7297 34.4107 32.2075C35.0974 31.6853 35.9154 31.3637 36.7739 31.2786" stroke="#0E3844" stroke-linejoin="round"/>
<path d="M25.6996 36.9876L25.5277 36.8329C24.7099 36.0968 23.4501 36.163 22.714 36.9809L20.2119 39.7607C19.4757 40.5785 19.542 41.8383 20.3599 42.5745L20.5317 42.7291C21.3496 43.4653 22.6093 43.399 23.3455 42.5812L25.8475 39.8014C26.5837 38.9835 26.5175 37.7237 25.6996 36.9876Z" stroke="#0E3844" stroke-linejoin="round"/>
<path d="M28.8763 39.7415L28.7045 39.5868C27.8866 38.8507 26.6269 38.9169 25.8907 39.7348L23.3887 42.5146C22.6525 43.3324 22.7187 44.5922 23.5366 45.3284L23.7084 45.483C24.5263 46.2192 25.7861 46.153 26.5222 45.3351L29.0243 42.5553C29.7605 41.7374 29.6942 40.4776 28.8763 39.7415Z" stroke="#0E3844" stroke-linejoin="round"/>
<path d="M32.0062 42.5579L31.8344 42.4032C31.0165 41.6671 29.7567 41.7333 29.0206 42.5512L26.5185 45.331C25.7824 46.1488 25.8486 47.4086 26.6665 48.1448L26.8383 48.2994C27.6562 49.0356 28.916 48.9694 29.6521 48.1515L32.1542 45.3717C32.8903 44.5538 32.8241 43.2941 32.0062 42.5579Z" stroke="#0E3844" stroke-linejoin="round"/>
<path d="M34.5844 45.9524L34.4125 45.7978C33.5947 45.0616 32.3349 45.1279 31.5987 45.9457L29.8609 47.8764C29.1248 48.6943 29.191 49.9541 30.0089 50.6902L30.1807 50.8449C30.9986 51.581 32.2584 51.5148 32.9945 50.6969L34.7323 48.7662C35.4685 47.9484 35.4022 46.6886 34.5844 45.9524Z" stroke="#0E3844" stroke-linejoin="round"/>
<path d="M35.6383 31.5664L45.8383 39.2572C46.2675 39.5773 46.5538 40.0533 46.6352 40.5825C46.7166 41.1117 46.5867 41.6517 46.2735 42.086C45.9639 42.5222 45.4954 42.8194 44.9688 42.9135C44.4422 43.0076 43.8998 42.8912 43.4583 42.5892L42.7035 42.0724L44.2471 43.1264C44.6584 43.4068 44.9435 43.8372 45.0414 44.3252C45.1392 44.8133 45.0421 45.3203 44.7707 45.7376C44.5015 46.149 44.0836 46.4403 43.6045 46.5506C43.1254 46.6608 42.6222 46.5815 42.2003 46.3292L39.8815 44.9692L40.6907 45.452C40.9323 45.5972 41.1402 45.7921 41.3007 46.0238C41.4611 46.2556 41.5704 46.5188 41.6212 46.7961C41.672 47.0733 41.6632 47.3582 41.5954 47.6318C41.5276 47.9054 41.4023 48.1614 41.2279 48.3828C40.9129 48.7867 40.454 49.0532 39.9471 49.1267C39.4403 49.2002 38.9246 49.075 38.5079 48.7772L36.5631 47.4172L37.6579 48.1924C38.0335 48.4617 38.2883 48.8679 38.3671 49.3233C38.446 49.7787 38.3427 50.2469 38.0795 50.6268C37.82 50.9805 37.4382 51.2252 37.0084 51.3131C36.5786 51.4011 36.1315 51.3261 35.7539 51.1028L33.7139 49.8856" stroke="#0E3844" stroke-linejoin="round"/>
<path d="M52.8968 36.3945L46.6816 40.2025" stroke="#0E3844" stroke-linejoin="round"/>
</svg>
