<svg width="68" height="68" viewBox="0 0 68 68" fill="none" xmlns="http://www.w3.org/2000/svg">
<path d="M58.7119 49.2672V12.2344L9.28952 12.2344V49.2672H58.7119Z" fill="#FBA543" stroke="#0E3844" stroke-miterlimit="10"/>
<path d="M52.1832 15.9727C52.1829 16.7218 52.4611 17.4443 52.9638 17.9998C53.4665 18.5553 54.1577 18.904 54.9032 18.9783V42.5199C54.1577 42.5941 53.4665 42.9428 52.9638 43.4983C52.4611 44.0538 52.1829 44.7763 52.1832 45.5255H16.1432C16.1432 44.7229 15.8244 43.9532 15.2569 43.3858C14.6894 42.8183 13.9197 42.4995 13.1172 42.4995V18.9987C13.9197 18.9987 14.6894 18.6798 15.2569 18.1124C15.8244 17.5449 16.1432 16.7752 16.1432 15.9727H48.5996" fill="white"/>
<path d="M52.1832 15.9727C52.1829 16.7218 52.4611 17.4443 52.9638 17.9998C53.4665 18.5553 54.1577 18.904 54.9032 18.9783V42.5199C54.1577 42.5941 53.4665 42.9428 52.9638 43.4983C52.4611 44.0538 52.1829 44.7763 52.1832 45.5255H16.1432C16.1432 44.7229 15.8244 43.9532 15.2569 43.3858C14.6894 42.8183 13.9197 42.4995 13.1172 42.4995V18.9987C13.9197 18.9987 14.6894 18.6798 15.2569 18.1124C15.8244 17.5449 16.1432 16.7752 16.1432 15.9727H48.5996" stroke="#0E3844" stroke-miterlimit="10"/>
<path d="M22.7051 20.4883H44.0435" stroke="#0E3844" stroke-miterlimit="10"/>
<path d="M22.7051 22.5977H31.1507" stroke="#0E3844" stroke-miterlimit="10"/>
<path d="M35.5986 22.5977H44.0442" stroke="#0E3844" stroke-miterlimit="10"/>
<path d="M30.5117 46.1992V59.1804L34.0001 55.692L37.4885 59.1804V46.1992H30.5117Z" fill="#F0457D" stroke="#0E3844" stroke-miterlimit="10"/>
<path d="M43.1942 40.4267C42.9863 40.3398 42.8088 40.1933 42.6839 40.0058C42.5591 39.8182 42.4924 39.598 42.4924 39.3727C42.4924 39.1473 42.5591 38.9271 42.6839 38.7395C42.8088 38.552 42.9863 38.4056 43.1942 38.3187L43.7042 38.1011C44.3316 37.8448 44.8316 37.3498 45.0943 36.725C45.357 36.1002 45.3608 35.3967 45.105 34.7691V34.7351C44.9662 34.4274 44.768 34.1502 44.5219 33.9194C44.2757 33.6885 43.9864 33.5086 43.6705 33.3898C43.3546 33.271 43.0184 33.2158 42.6811 33.2273C42.3438 33.2387 42.0121 33.3167 41.705 33.4567L41.1882 33.6743C40.9804 33.7631 40.751 33.7884 40.5289 33.7468C40.3067 33.7053 40.1019 33.5988 39.9403 33.4409C39.7787 33.2829 39.6676 33.0806 39.621 32.8595C39.5744 32.6384 39.5945 32.4084 39.6786 32.1987L39.8826 31.6819C40.1432 31.0576 40.1465 30.3556 39.8917 29.7289C39.637 29.1022 39.1448 28.6017 38.5226 28.3363H38.4614C37.8281 28.1013 37.1277 28.1251 36.5118 28.4025C35.8959 28.68 35.4139 29.1887 35.1702 29.8187L34.9662 30.3355C34.8793 30.5433 34.7329 30.7209 34.5453 30.8457C34.3578 30.9706 34.1375 31.0372 33.9122 31.0372C33.6869 31.0372 33.4666 30.9706 33.2791 30.8457C33.0915 30.7209 32.9451 30.5433 32.8582 30.3355L32.6406 29.8051C32.3828 29.1805 31.8889 28.6829 31.2662 28.4206C30.6435 28.1583 29.9424 28.1524 29.3154 28.4043C29.0078 28.543 28.7306 28.7412 28.4997 28.9874C28.2689 29.2336 28.0889 29.5229 27.9701 29.8388C27.8514 30.1547 27.7961 30.4909 27.8076 30.8282C27.8191 31.1655 27.897 31.4972 28.037 31.8043L28.2546 32.3143C28.3435 32.522 28.3687 32.7515 28.3272 32.9736C28.2856 33.1957 28.1792 33.4005 28.0212 33.5621C27.8632 33.7237 27.6609 33.8348 27.4398 33.8814C27.2187 33.928 26.9887 33.908 26.779 33.8239L26.2622 33.6131C25.6376 33.3561 24.937 33.3547 24.3113 33.609C23.6856 33.8634 23.1848 34.3532 22.9166 34.9731V35.0343C22.6817 35.6676 22.7055 36.3679 22.9829 36.9838C23.2603 37.5998 23.769 38.0817 24.399 38.3255L24.909 38.5295C25.1169 38.6164 25.2944 38.7628 25.4193 38.9503C25.5441 39.1379 25.6108 39.3581 25.6108 39.5835C25.6108 39.8088 25.5441 40.029 25.4193 40.2166C25.2944 40.4041 25.1169 40.5506 24.909 40.6375L24.399 40.8619C24.0808 40.9817 23.7895 41.1634 23.542 41.3966C23.2946 41.6298 23.0958 41.9098 22.9573 42.2203C22.8188 42.5309 22.7433 42.8658 22.7351 43.2057C22.727 43.5457 22.7863 43.8838 22.9098 44.2007V44.2415C23.1928 44.8603 23.7096 45.3417 24.347 45.58C24.9843 45.8184 25.6902 45.7943 26.3098 45.5131L26.8198 45.2955C27.0272 45.2056 27.2565 45.1793 27.4789 45.2198C27.7012 45.2603 27.9065 45.3659 28.0689 45.5231C28.2312 45.6803 28.3432 45.8822 28.3908 46.1031C28.4384 46.324 28.4194 46.5541 28.3362 46.7643L28.1254 47.2879C27.8687 47.9115 27.8675 48.6111 28.1219 49.2357C28.3763 49.8602 28.866 50.3598 29.4854 50.6267H29.5534C30.1867 50.8616 30.8871 50.8378 31.503 50.5604C32.1189 50.283 32.6008 49.7742 32.8446 49.1443L33.0486 48.6275C33.1355 48.4196 33.2819 48.242 33.4695 48.1172C33.657 47.9923 33.8773 47.9257 34.1026 47.9257C34.3279 47.9257 34.5482 47.9923 34.7357 48.1172C34.9233 48.242 35.0697 48.4196 35.1566 48.6275L35.3742 49.1375C35.6334 49.7625 36.1286 50.2602 36.7524 50.5224C37.3762 50.7847 38.0782 50.7904 38.7062 50.5383H38.7402C39.0478 50.3995 39.325 50.2013 39.5559 49.9551C39.7867 49.709 39.9667 49.4196 40.0855 49.1037C40.2042 48.7878 40.2595 48.4516 40.248 48.1143C40.2365 47.777 40.1586 47.4453 40.0186 47.1383L39.801 46.6215C39.7121 46.4137 39.6869 46.1842 39.7284 45.9621C39.7699 45.74 39.8764 45.5352 40.0344 45.3736C40.1923 45.212 40.3947 45.1009 40.6158 45.0543C40.8369 45.0077 41.0669 45.0277 41.2766 45.1119L41.7934 45.3227C42.4179 45.5814 43.1191 45.5838 43.7453 45.3292C44.3715 45.0747 44.8722 44.5837 45.139 43.9627V43.8947C45.3743 43.2622 45.3515 42.5626 45.0754 41.9468C44.7993 41.331 44.2921 40.8485 43.6634 40.6035L43.1942 40.4267Z" fill="#0099F5" stroke="#0E3844" stroke-linejoin="bevel"/>
<path d="M34.0001 45.2013C37.1547 45.2013 39.7121 42.644 39.7121 39.4893C39.7121 36.3347 37.1547 33.7773 34.0001 33.7773C30.8454 33.7773 28.2881 36.3347 28.2881 39.4893C28.2881 42.644 30.8454 45.2013 34.0001 45.2013Z" fill="#F0457D" stroke="#0E3844" stroke-miterlimit="10"/>
<path d="M34 55.6925V48.1445" stroke="#0E3844" stroke-linejoin="bevel"/>
<path d="M13.1177 17.1709C13.7787 17.1709 14.3145 16.6351 14.3145 15.9741C14.3145 15.3132 13.7787 14.7773 13.1177 14.7773C12.4567 14.7773 11.9209 15.3132 11.9209 15.9741C11.9209 16.6351 12.4567 17.1709 13.1177 17.1709Z" fill="#0099F5" stroke="#0E3844" stroke-linejoin="bevel"/>
<path d="M54.8833 17.1709C55.5443 17.1709 56.0801 16.6351 56.0801 15.9741C56.0801 15.3132 55.5443 14.7773 54.8833 14.7773C54.2224 14.7773 53.6865 15.3132 53.6865 15.9741C53.6865 16.6351 54.2224 17.1709 54.8833 17.1709Z" fill="#0099F5" stroke="#0E3844" stroke-linejoin="bevel"/>
<path d="M13.1177 46.3975C13.7787 46.3975 14.3145 45.8617 14.3145 45.2007C14.3145 44.5397 13.7787 44.0039 13.1177 44.0039C12.4567 44.0039 11.9209 44.5397 11.9209 45.2007C11.9209 45.8617 12.4567 46.3975 13.1177 46.3975Z" fill="#0099F5" stroke="#0E3844" stroke-linejoin="bevel"/>
<path d="M54.8833 46.3975C55.5443 46.3975 56.0801 45.8617 56.0801 45.2007C56.0801 44.5397 55.5443 44.0039 54.8833 44.0039C54.2224 44.0039 53.6865 44.5397 53.6865 45.2007C53.6865 45.8617 54.2224 46.3975 54.8833 46.3975Z" fill="#0099F5" stroke="#0E3844" stroke-linejoin="bevel"/>
</svg>
