<svg width="68" height="68" viewBox="0 0 68 68" fill="none" xmlns="http://www.w3.org/2000/svg">
<path d="M50.4904 8.83869H50.368C50.164 8.83869 49.9532 8.80469 49.7492 8.80469H18.2516C18.034 8.80469 17.8096 8.80469 17.6056 8.83869H17.5104C15.7141 9.01784 14.049 9.85954 12.8396 11.1997C11.6302 12.5398 10.9633 14.2823 10.9688 16.0875V18.5355C10.9688 19.6371 11.0436 20.9472 11.1932 22.4659C11.7984 28.3071 14.974 46.2659 21.3932 51.8351C24.7181 54.7464 28.6763 56.842 32.9532 57.9551C34.1157 58.2498 35.3334 58.2498 36.496 57.9551C40.7672 56.8488 44.724 54.768 48.056 51.8759C55.1484 45.6947 56.7328 24.6759 56.896 22.2755C56.9912 20.9155 57.0388 19.6711 57.0388 18.5763V16.1283C57.0543 14.3151 56.391 12.5616 55.1793 11.2127C53.9675 9.86372 52.2949 9.01689 50.4904 8.83869Z" fill="#FBA543"/>
<path d="M55.3384 15.2631V18.1191C55.3384 19.2275 55.284 20.5671 55.182 22.0767L46.342 30.9167C46.0729 31.188 45.9219 31.5546 45.9219 31.9367C45.9219 32.3188 46.0729 32.6854 46.342 32.9567C46.4769 33.0901 46.5839 33.249 46.657 33.4241C46.7301 33.5992 46.7677 33.787 46.7677 33.9767C46.7677 34.1664 46.7301 34.3543 46.657 34.5294C46.5839 34.7044 46.4769 34.8633 46.342 34.9967L45.458 35.8807L44.166 37.1795L36.72 44.5983L34.7684 42.6535L34.714 42.5991L28.594 36.4791L26.6084 34.4867L30.9808 30.1075L36.1828 24.9123C36.3162 24.7774 36.4751 24.6704 36.6502 24.5973C36.8252 24.5242 37.0131 24.4866 37.2028 24.4866C37.3925 24.4866 37.5804 24.5242 37.7554 24.5973C37.9305 24.6704 38.0894 24.7774 38.2228 24.9123C38.3582 25.0457 38.5186 25.1511 38.6948 25.2222C38.871 25.2934 39.0596 25.3291 39.2496 25.3271C39.4399 25.331 39.629 25.2962 39.8055 25.2249C39.982 25.1536 40.1422 25.0473 40.2764 24.9123L52.7544 12.3867C53.4643 12.4623 54.1212 12.798 54.5983 13.3291C55.0754 13.8602 55.339 14.5492 55.3384 15.2631Z" fill="#F0457D"/>
<path d="M44.561 42.4641L39.2707 47.7545C38.9541 48.0773 38.5764 48.3338 38.1595 48.5088C37.7427 48.6839 37.2952 48.774 36.8431 48.774C36.391 48.774 35.9434 48.6839 35.5266 48.5088C35.1097 48.3338 34.732 48.0773 34.4155 47.7545L34.0007 47.3465L23.8551 37.2009L21.679 35.0249C21.4116 34.7528 21.2617 34.3865 21.2617 34.0049C21.2617 33.6234 21.4116 33.2571 21.679 32.9849C21.8131 32.851 21.9195 32.692 21.992 32.517C22.0646 32.342 22.1019 32.1544 22.1019 31.9649C22.1019 31.7755 22.0646 31.5879 21.992 31.4128C21.9195 31.2378 21.8131 31.0788 21.679 30.9449L12.9206 22.1525C12.7642 20.6225 12.6826 19.2489 12.6826 18.1269V15.2641C12.6793 14.549 12.943 13.8584 13.4223 13.3276C13.9015 12.7967 14.5617 12.464 15.2734 12.3945L27.7379 24.8793C27.8717 25.0134 28.0307 25.1197 28.2058 25.1923C28.3808 25.2649 28.5684 25.3022 28.7579 25.3022C28.9473 25.3022 29.1349 25.2649 29.3099 25.1923C29.485 25.1197 29.644 25.0134 29.7779 24.8793C29.9113 24.7445 30.0701 24.6374 30.2452 24.5643C30.4203 24.4912 30.6081 24.4536 30.7979 24.4536C30.9876 24.4536 31.1754 24.4912 31.3505 24.5643C31.5256 24.6374 31.6844 24.7445 31.8179 24.8793L33.9939 27.0553L37.6522 30.7137L44.1395 37.2009L44.5475 37.6157C44.8701 37.9313 45.1267 38.3078 45.3023 38.7236C45.4779 39.1393 45.569 39.5858 45.5703 40.0371C45.5716 40.4884 45.483 40.9354 45.3097 41.3521C45.1364 41.7688 44.8819 42.1468 44.561 42.4641Z" fill="#0099F5"/>
<path d="M28.5283 36.3889L34.8224 42.683C35.3325 43.1931 35.619 43.885 35.619 44.6064C35.619 45.3277 35.3325 46.0196 34.8224 46.5297L32.899 48.453C32.5713 48.7808 32.1268 48.9649 31.6633 48.9649C31.1998 48.9649 30.7553 48.7808 30.4276 48.453L22.7342 40.7597C22.4065 40.432 22.2224 39.9874 22.2224 39.524C22.2224 39.0605 22.4065 38.616 22.7342 38.2882L24.6576 36.3649C24.9122 36.1103 25.2148 35.9087 25.5479 35.7719C25.881 35.6352 26.2379 35.5659 26.5979 35.5681C26.958 35.5704 27.3141 35.6441 27.6454 35.785C27.9768 35.9259 28.2769 36.1312 28.5283 36.3889Z" fill="#F0457D"/>
<path d="M38.951 29.4166L36.7206 31.647C36.4475 31.9219 36.1228 32.1401 35.7651 32.2889C35.4074 32.4378 35.0238 32.5144 34.6364 32.5144C34.2489 32.5144 33.8653 32.4378 33.5076 32.2889C33.1499 32.1401 32.8252 31.9219 32.5522 31.647L32.5114 31.6062C32.1069 31.1997 31.8799 30.6496 31.8799 30.0762C31.8799 29.5028 32.1069 28.9527 32.5114 28.5462L36.1766 24.881C36.4479 24.6119 36.8145 24.4609 37.1966 24.4609C37.5787 24.4609 37.9453 24.6119 38.2166 24.881L40.8482 27.5126" fill="#F0457D"/>
<path d="M45.4383 35.9013L44.1463 37.2001L37.6523 30.7061L38.9511 29.4141L45.4383 35.9013Z" fill="#BC175A"/>
<path d="M29.7773 24.8785L30.8517 23.7973C31.2126 23.4368 31.7017 23.2344 32.2117 23.2344C32.7218 23.2344 33.2109 23.4368 33.5717 23.7973L35.4077 25.6333L34.0001 27.0545L29.7773 24.8785Z" fill="#0099F5"/>
<path d="M34.0002 27.0559L32.5654 25.6211H35.4146L34.0002 27.0559Z" fill="#0064F4"/>
<path d="M50.4904 8.83869H50.368C50.164 8.83869 49.9532 8.80469 49.7492 8.80469H18.2516C18.034 8.80469 17.8096 8.80469 17.6056 8.83869H17.5104C15.7141 9.01784 14.049 9.85954 12.8396 11.1997C11.6302 12.5398 10.9633 14.2823 10.9688 16.0875V18.5355C10.9688 19.6371 11.0436 20.9472 11.1932 22.4659C11.7984 28.3071 14.974 46.2659 21.3932 51.8351C24.7181 54.7464 28.6763 56.842 32.9532 57.9551C34.1157 58.2498 35.3334 58.2498 36.496 57.9551C40.7672 56.8488 44.724 54.768 48.056 51.8759C55.1484 45.6947 56.7328 24.6759 56.896 22.2755C56.9912 20.9155 57.0388 19.6711 57.0388 18.5763V16.1283C57.0543 14.3151 56.391 12.5616 55.1793 11.2127C53.9675 9.86372 52.2949 9.01689 50.4904 8.83869Z" stroke="#0E3844" stroke-miterlimit="10"/>
<path d="M50.9183 26.3438L46.3215 30.9405C46.0524 31.2118 45.9014 31.5785 45.9014 31.9605C45.9014 32.3426 46.0524 32.7093 46.3215 32.9805C46.4564 33.114 46.5635 33.2728 46.6365 33.4479C46.7096 33.623 46.7472 33.8108 46.7472 34.0005C46.7472 34.1903 46.7096 34.3781 46.6365 34.5532C46.5635 34.7283 46.4564 34.8871 46.3215 35.0205L45.4375 35.9045L44.1455 37.2033" stroke="#0E3844" stroke-miterlimit="10"/>
<path d="M40.2695 24.8783L52.7543 12.3867" stroke="#0E3844" stroke-miterlimit="10"/>
<path d="M15.2529 12.3945L27.7377 24.8793C27.8716 25.0134 28.0306 25.1197 28.2056 25.1923C28.3807 25.2649 28.5683 25.3022 28.7577 25.3022C28.9472 25.3022 29.1348 25.2649 29.3098 25.1923C29.4848 25.1197 29.6438 25.0134 29.7777 24.8793" stroke="#0E3844" stroke-miterlimit="10"/>
<path d="M23.8543 37.2007L21.6783 35.0247C21.4109 34.7526 21.261 34.3863 21.261 34.0047C21.261 33.6232 21.4109 33.2569 21.6783 32.9847C21.8124 32.8509 21.9187 32.6919 21.9913 32.5168C22.0638 32.3418 22.1012 32.1542 22.1012 31.9647C22.1012 31.7753 22.0638 31.5877 21.9913 31.4127C21.9187 31.2376 21.8124 31.0786 21.6783 30.9447L12.9199 22.1523" stroke="#0E3844" stroke-miterlimit="10"/>
<path d="M36.1836 48.7008C36.7362 48.8115 37.3077 48.7831 37.8465 48.6181C38.3854 48.4531 38.8749 48.1567 39.2708 47.7556L44.5612 42.4652C44.883 42.1488 45.1385 41.7715 45.313 41.3553C45.4874 40.9391 45.5772 40.4923 45.5772 40.041C45.5772 39.5898 45.4874 39.143 45.313 38.7268C45.1385 38.3106 44.883 37.9333 44.5612 37.6168L44.1532 37.202L37.666 30.7148" stroke="#0E3844" stroke-miterlimit="10"/>
<path d="M28.5283 36.3889L34.8224 42.683C35.3325 43.1931 35.619 43.885 35.619 44.6064C35.619 45.3277 35.3325 46.0196 34.8224 46.5297L32.899 48.453C32.5713 48.7808 32.1268 48.9649 31.6633 48.9649C31.1998 48.9649 30.7553 48.7808 30.4276 48.453L22.7342 40.7597C22.4065 40.432 22.2224 39.9874 22.2224 39.524C22.2224 39.0605 22.4065 38.616 22.7342 38.2882L24.6576 36.3649C24.9122 36.1103 25.2148 35.9087 25.5479 35.7719C25.881 35.6352 26.2379 35.5659 26.5979 35.5681C26.958 35.5704 27.3141 35.6441 27.6454 35.785C27.9768 35.9259 28.2769 36.1312 28.5283 36.3889Z" stroke="#0E3844" stroke-miterlimit="10"/>
<path d="M38.951 29.4166L36.7206 31.647C36.4475 31.9219 36.1228 32.1401 35.7651 32.2889C35.4074 32.4378 35.0238 32.5144 34.6364 32.5144C34.2489 32.5144 33.8653 32.4378 33.5076 32.2889C33.1499 32.1401 32.8252 31.9219 32.5522 31.647L32.5114 31.6062C32.1069 31.1997 31.8799 30.6496 31.8799 30.0762C31.8799 29.5028 32.1069 28.9527 32.5114 28.5462L36.1766 24.881C36.4479 24.6119 36.8145 24.4609 37.1966 24.4609C37.5787 24.4609 37.9453 24.6119 38.2166 24.881L40.8482 27.5126" stroke="#0E3844" stroke-miterlimit="10"/>
<path d="M29.7773 24.8785L30.8517 23.7973C31.2126 23.4368 31.7017 23.2344 32.2117 23.2344C32.7218 23.2344 33.2109 23.4368 33.5717 23.7973L34.5645 24.7901" stroke="#0E3844" stroke-miterlimit="10"/>
</svg>
