<svg width="68" height="68" viewBox="0 0 68 68" fill="none" xmlns="http://www.w3.org/2000/svg">
<path d="M34.4689 59.6234C47.5119 59.6234 58.0853 49.05 58.0853 36.007C58.0853 22.9641 47.5119 12.3906 34.4689 12.3906C21.426 12.3906 10.8525 22.9641 10.8525 36.007C10.8525 49.05 21.426 59.6234 34.4689 59.6234Z" fill="#0A2A33" stroke="#0A2A33" stroke-miterlimit="10"/>
<path d="M34.4689 57.6976C47.5119 57.6976 58.0853 47.1242 58.0853 34.0812C58.0853 21.0383 47.5119 10.4648 34.4689 10.4648C21.426 10.4648 10.8525 21.0383 10.8525 34.0812C10.8525 47.1242 21.426 57.6976 34.4689 57.6976Z" fill="#E8C545" stroke="#0E3844" stroke-miterlimit="10"/>
<path d="M34.4685 51.1304C43.8836 51.1304 51.5161 43.4979 51.5161 34.0828C51.5161 24.6676 43.8836 17.0352 34.4685 17.0352C25.0534 17.0352 17.4209 24.6676 17.4209 34.0828C17.4209 43.4979 25.0534 51.1304 34.4685 51.1304Z" fill="#FBA543" stroke="#0E3844" stroke-linejoin="bevel"/>
<path d="M27.1391 45.0031L26.8473 41.6681L24 41.3263L32.8086 30.9961L35.9435 34.6729L27.1391 45.0031Z" fill="#0099F5" stroke="#0E3844" stroke-linejoin="bevel"/>
<path d="M39.2955 41.4722L42.3054 45.0031L42.5972 41.6681L45.4403 41.3263L36.6359 30.9961L33.501 34.6729L38.2409 40.2382" fill="#0099F5"/>
<path d="M39.2955 41.4722L42.3054 45.0031L42.5972 41.6681L45.4403 41.3263L36.6359 30.9961L33.501 34.6729L38.2409 40.2382" stroke="#0E3844" stroke-linejoin="bevel"/>
<path d="M42.0171 34.9663L41.3418 35.6375L35.3596 41.6238C35.1855 41.7964 34.9503 41.8932 34.7051 41.8932C34.46 41.8932 34.2247 41.7964 34.0506 41.6238L27.3806 34.9538C26.9445 34.5182 26.5985 34.001 26.3624 33.4316C26.1264 32.8622 26.0049 32.2518 26.0049 31.6355C26.0049 31.0191 26.1264 30.4087 26.3624 29.8394C26.5985 29.27 26.9445 28.7527 27.3806 28.3171C27.8162 27.881 28.3335 27.535 28.9028 27.299C29.4722 27.0629 30.0826 26.9414 30.6989 26.9414C31.3153 26.9414 31.9257 27.0629 32.495 27.299C33.0644 27.535 33.5817 27.881 34.0173 28.3171L34.6926 28.9925L35.368 28.3171C35.8035 27.881 36.3208 27.535 36.8902 27.299C37.4596 27.0629 38.0699 26.9414 38.6863 26.9414C39.3027 26.9414 39.913 27.0629 40.4824 27.299C41.0518 27.535 41.569 27.881 42.0046 28.3171C42.4434 28.7521 42.792 29.2695 43.0302 29.8396C43.2685 30.4097 43.3917 31.0212 43.3929 31.6391C43.394 32.257 43.2731 32.869 43.037 33.44C42.8009 34.011 42.4543 34.5297 42.0171 34.9663Z" fill="#F0457D" stroke="#0E3844" stroke-miterlimit="10"/>
<path d="M26.5509 34.7466L26.159 34.3589C25.3918 33.592 24.8694 32.6148 24.6579 31.5508C24.4464 30.4869 24.5554 29.3841 24.9709 28.3821C25.3864 27.38 26.0899 26.5238 26.9923 25.9218C27.8946 25.3198 28.9553 24.999 30.0401 25.0001C30.7603 24.9959 31.4741 25.1354 32.1397 25.4102C32.8054 25.6851 33.4096 26.0898 33.9171 26.6009L34.7049 27.393L35.4928 26.6009C36.5253 25.5901 37.9149 25.0275 39.3598 25.0351C40.8047 25.0428 42.1882 25.6202 43.2099 26.6419C44.2316 27.6636 44.809 29.0471 44.8167 30.492C44.8243 31.9369 44.2617 33.3264 43.2509 34.3589L42.463 35.1468L35.472 42.1378C35.372 42.2391 35.2528 42.3194 35.1215 42.3743C34.9902 42.4291 34.8493 42.4573 34.707 42.4573C34.5647 42.4573 34.4238 42.4291 34.2925 42.3743C34.1612 42.3194 34.0421 42.2391 33.9421 42.1378L27.5305 35.7305" fill="#F0457D"/>
<path d="M26.5509 34.7466L26.159 34.3589C25.3918 33.592 24.8694 32.6148 24.6579 31.5508C24.4464 30.4869 24.5554 29.3841 24.9709 28.3821C25.3864 27.38 26.0899 26.5238 26.9923 25.9218C27.8946 25.3198 28.9553 24.999 30.0401 25.0001C30.7603 24.9959 31.4741 25.1354 32.1397 25.4102C32.8054 25.6851 33.4096 26.0898 33.9171 26.6009L34.7049 27.393L35.4928 26.6009C36.5253 25.5901 37.9149 25.0275 39.3598 25.0351C40.8047 25.0428 42.1882 25.6202 43.2099 26.6419C44.2316 27.6636 44.809 29.0471 44.8167 30.492C44.8243 31.9369 44.2617 33.3264 43.2509 34.3589L42.463 35.1468L35.472 42.1378C35.372 42.2391 35.2528 42.3194 35.1215 42.3743C34.9902 42.4291 34.8493 42.4573 34.707 42.4573C34.5647 42.4573 34.4238 42.4291 34.2925 42.3743C34.1612 42.3194 34.0421 42.2391 33.9421 42.1378L27.5305 35.7305" stroke="#0E3844" stroke-miterlimit="10"/>
<path d="M42.7762 41.897L39.9414 38.5703" stroke="#0E3844" stroke-linejoin="bevel"/>
<path d="M26.7637 41.897L29.5984 38.5703" stroke="#0E3844" stroke-linejoin="bevel"/>
</svg>
