<svg width="68" height="68" viewBox="0 0 68 68" fill="none" xmlns="http://www.w3.org/2000/svg">
<path d="M34.4689 59.6234C47.5119 59.6234 58.0853 49.05 58.0853 36.007C58.0853 22.9641 47.5119 12.3906 34.4689 12.3906C21.426 12.3906 10.8525 22.9641 10.8525 36.007C10.8525 49.05 21.426 59.6234 34.4689 59.6234Z" fill="#0A2A33" stroke="#0A2A33" stroke-miterlimit="10"/>
<path d="M34.4689 57.6976C47.5119 57.6976 58.0853 47.1242 58.0853 34.0812C58.0853 21.0383 47.5119 10.4648 34.4689 10.4648C21.426 10.4648 10.8525 21.0383 10.8525 34.0812C10.8525 47.1242 21.426 57.6976 34.4689 57.6976Z" fill="#F0457D" stroke="#0E3844" stroke-miterlimit="10"/>
<path d="M34.4685 51.1304C43.8836 51.1304 51.5161 43.4979 51.5161 34.0828C51.5161 24.6676 43.8836 17.0352 34.4685 17.0352C25.0534 17.0352 17.4209 24.6676 17.4209 34.0828C17.4209 43.4979 25.0534 51.1304 34.4685 51.1304Z" fill="#FBA543" stroke="#0E3844" stroke-linejoin="bevel"/>
<path d="M22.0999 49.266L21.6239 43.826L16.9795 43.2684L31.3479 26.418L36.4615 32.4156L22.0999 49.266Z" fill="#0099F5" stroke="#0E3844" stroke-linejoin="bevel"/>
<path d="M41.9286 43.5064L46.8382 49.266L47.3142 43.826L51.9518 43.2684L37.5902 26.418L32.4766 32.4156L40.2082 41.4936" fill="#0099F5"/>
<path d="M41.9286 43.5064L46.8382 49.266L47.3142 43.826L51.9518 43.2684L37.5902 26.418L32.4766 32.4156L40.2082 41.4936" stroke="#0E3844" stroke-linejoin="bevel"/>
<path d="M46.3689 32.9065L45.2673 34.0013L35.5093 43.7661C35.2253 44.0476 34.8416 44.2056 34.4417 44.2056C34.0418 44.2056 33.6581 44.0476 33.3741 43.7661L22.4941 32.8861C21.7827 32.1756 21.2183 31.3318 20.8333 30.403C20.4482 29.4743 20.25 28.4787 20.25 27.4733C20.25 26.4678 20.4482 25.4723 20.8333 24.5435C21.2183 23.6147 21.7827 22.771 22.4941 22.0605C23.2046 21.3491 24.0483 20.7847 24.9771 20.3997C25.9059 20.0146 26.9014 19.8164 27.9069 19.8164C28.9123 19.8164 29.9079 20.0146 30.8366 20.3997C31.7654 20.7847 32.6092 21.3491 33.3197 22.0605L34.4213 23.1621L35.5229 22.0605C36.2334 21.3491 37.0771 20.7847 38.0059 20.3997C38.9347 20.0146 39.9302 19.8164 40.9357 19.8164C41.9411 19.8164 42.9367 20.0146 43.8654 20.3997C44.7942 20.7847 45.638 21.3491 46.3485 22.0605C47.0643 22.77 47.6328 23.614 48.0214 24.5439C48.41 25.4738 48.6111 26.4714 48.613 27.4792C48.6149 28.4871 48.4176 29.4854 48.0325 30.4168C47.6474 31.3482 47.082 32.1943 46.3689 32.9065Z" fill="#F0457D" stroke="#0E3844" stroke-miterlimit="10"/>
<path d="M21.1411 32.5431L20.5019 31.9107C19.2506 30.6597 18.3984 29.0656 18.0534 27.3301C17.7085 25.5946 17.8861 23.7958 18.5639 22.1613C19.2417 20.5268 20.3892 19.1302 21.8612 18.1482C23.3331 17.1662 25.0633 16.6429 26.8327 16.6447C28.0075 16.6379 29.1718 16.8653 30.2576 17.3137C31.3434 17.762 32.329 18.4223 33.1567 19.2559L34.4419 20.5479L35.7271 19.2559C37.4113 17.6071 39.678 16.6893 42.0349 16.7018C44.3917 16.7144 46.6485 17.6562 48.3151 19.3228C49.9817 20.9893 50.9235 23.2461 50.936 25.603C50.9485 27.9598 50.0307 30.2265 48.3819 31.9107L47.0967 33.1959L35.6931 44.5995C35.53 44.7646 35.3357 44.8956 35.1215 44.9851C34.9073 45.0746 34.6775 45.1206 34.4453 45.1206C34.2132 45.1206 33.9834 45.0746 33.7692 44.9851C33.555 44.8956 33.3607 44.7646 33.1975 44.5995L22.7391 34.1479" fill="#F0457D"/>
<path d="M21.1411 32.5431L20.5019 31.9107C19.2506 30.6597 18.3984 29.0656 18.0534 27.3301C17.7085 25.5946 17.8861 23.7958 18.5639 22.1613C19.2417 20.5268 20.3892 19.1302 21.8612 18.1482C23.3331 17.1662 25.0633 16.6429 26.8327 16.6447C28.0075 16.6379 29.1718 16.8653 30.2576 17.3137C31.3434 17.762 32.329 18.4223 33.1567 19.2559L34.4419 20.5479L35.7271 19.2559C37.4113 17.6071 39.678 16.6893 42.0349 16.7018C44.3917 16.7144 46.6485 17.6562 48.3151 19.3228C49.9817 20.9893 50.9235 23.2461 50.936 25.603C50.9485 27.9598 50.0307 30.2265 48.3819 31.9107L47.0967 33.1959L35.6931 44.5995C35.53 44.7646 35.3357 44.8956 35.1215 44.9851C34.9073 45.0746 34.6775 45.1206 34.4453 45.1206C34.2132 45.1206 33.9834 45.0746 33.7692 44.9851C33.555 44.8956 33.3607 44.7646 33.1975 44.5995L22.7391 34.1479" stroke="#0E3844" stroke-miterlimit="10"/>
<path d="M25.0576 19.0408C25.6371 18.8902 26.2336 18.8148 26.8324 18.8164" stroke="white" stroke-miterlimit="10"/>
<path d="M20.0801 25.5888C20.0788 24.7039 20.253 23.8276 20.5927 23.0105C20.9324 22.1935 21.4307 21.4519 22.0589 20.8287C22.5964 20.2679 23.2297 19.8073 23.9289 19.4688" stroke="white" stroke-miterlimit="10"/>
<path d="M47.6064 44.2077L42.9824 38.7812" stroke="#0E3844" stroke-linejoin="bevel"/>
<path d="M21.4873 44.2077L26.1113 38.7812" stroke="#0E3844" stroke-linejoin="bevel"/>
</svg>
