<svg width="68" height="68" viewBox="0 0 68 68" fill="none" xmlns="http://www.w3.org/2000/svg">
<path d="M12.3418 42.6289V50.5101H20.223" fill="#0099F5"/>
<path d="M12.3418 42.6289V50.5101H20.223" stroke="#0E3844" stroke-linejoin="bevel"/>
<path d="M12.3418 27.7299V19.8555H20.223" fill="#0099F5"/>
<path d="M12.3418 27.7299V19.8555H20.223" stroke="#0E3844" stroke-linejoin="bevel"/>
<path d="M55.3246 27.7299V19.8555H47.4502" fill="#0099F5"/>
<path d="M55.3246 27.7299V19.8555H47.4502" stroke="#0E3844" stroke-linejoin="bevel"/>
<path d="M55.3246 42.6289V50.5101H47.4502" fill="#0099F5"/>
<path d="M55.3246 42.6289V50.5101H47.4502" stroke="#0E3844" stroke-linejoin="bevel"/>
<path d="M33.8362 43.5483C43.3039 43.5483 50.979 39.8036 50.979 35.1843C50.979 30.565 43.3039 26.8203 33.8362 26.8203C24.3685 26.8203 16.6934 30.565 16.6934 35.1843C16.6934 39.8036 24.3685 43.5483 33.8362 43.5483Z" fill="#FBA543" stroke="#0E3844" stroke-linejoin="bevel"/>
<path d="M33.8369 40.5078C36.9014 40.5078 39.3857 38.0235 39.3857 34.959C39.3857 31.8944 36.9014 29.4102 33.8369 29.4102C30.7724 29.4102 28.2881 31.8944 28.2881 34.959C28.2881 38.0235 30.7724 40.5078 33.8369 40.5078Z" fill="#0E3844" stroke="#0E3844" stroke-linejoin="bevel"/>
<path d="M38.501 34.7617C39.7253 34.7617 40.7178 33.7692 40.7178 32.5449C40.7178 31.3206 39.7253 30.3281 38.501 30.3281C37.2767 30.3281 36.2842 31.3206 36.2842 32.5449C36.2842 33.7692 37.2767 34.7617 38.501 34.7617Z" fill="white"/>
</svg>
