<svg width="68" height="68" viewBox="0 0 68 68" fill="none" xmlns="http://www.w3.org/2000/svg">
<path d="M37.3528 52.7056C48.0411 52.7056 56.7056 44.0411 56.7056 33.3528C56.7056 22.6645 48.0411 14 37.3528 14C26.6645 14 18 22.6645 18 33.3528C18 44.0411 26.6645 52.7056 37.3528 52.7056Z" fill="#0A2A33"/>
<path d="M36.3528 50.7056C47.0411 50.7056 55.7056 42.0411 55.7056 31.3528C55.7056 20.6645 47.0411 12 36.3528 12C25.6645 12 17 20.6645 17 31.3528C17 42.0411 25.6645 50.7056 36.3528 50.7056Z" fill="#0099F5" stroke="#0E3844" stroke-miterlimit="10"/>
<path d="M22.705 44.6562L18.999 48.3623" stroke="#0E3844" stroke-miterlimit="10"/>
<path d="M22.3382 50.103L11.9478 60.4934H6.86816V55.4138L17.2586 45.0234L19.8018 47.5666L22.3382 50.103Z" fill="#DB2868" stroke="#0E3844" stroke-miterlimit="10"/>
<path d="M6.86816 55.4133V49.5312" stroke="#0E3844" stroke-miterlimit="10"/>
<path d="M11.9482 60.4922H18.551" stroke="#0E3844" stroke-miterlimit="10"/>
<path d="M36.7998 39.3008C45.0841 39.3008 48.3203 35.3939 51.7998 31.8008C48.3203 28.1834 45.0841 24.3008 36.7998 24.3008C28.5155 24.3008 26.6709 27.0741 21.7998 31.8008C25.5884 35.3939 28.5155 39.3008 36.7998 39.3008Z" stroke="#0683CE" stroke-width="2" stroke-linejoin="bevel"/>
<path d="M36.8572 38.5219C44.5103 38.5219 47.5 35 50.7144 31.761C47.5 28.5 44.5103 25 36.8572 25C29.2041 25 27.5 27.5 23 31.761C26.5 35 29.2041 38.5219 36.8572 38.5219Z" fill="#FBA543" stroke="#0E3844" stroke-linejoin="bevel"/>
<path d="M36.8574 36.0644C39.3346 36.0644 41.3427 34.0562 41.3427 31.5791C41.3427 29.1019 39.3346 27.0938 36.8574 27.0938C34.3802 27.0938 32.3721 29.1019 32.3721 31.5791C32.3721 34.0562 34.3802 36.0644 36.8574 36.0644Z" fill="#0E3844" stroke="#0E3844" stroke-linejoin="bevel"/>
<mask id="mask0_10221_61659" style="mask-type:alpha" maskUnits="userSpaceOnUse" x="31" y="26" width="11" height="11">
<path d="M36.8574 36.0644C39.3346 36.0644 41.3427 34.0562 41.3427 31.5791C41.3427 29.1019 39.3346 27.0938 36.8574 27.0938C34.3802 27.0938 32.3721 29.1019 32.3721 31.5791C32.3721 34.0562 34.3802 36.0644 36.8574 36.0644Z" fill="#0E3844" stroke="#0E3844" stroke-linejoin="bevel"/>
</mask>
<g mask="url(#mask0_10221_61659)">
<path d="M40.6279 31.4198C41.6175 31.4198 42.4198 30.6175 42.4198 29.6279C42.4198 28.6382 41.6175 27.8359 40.6279 27.8359C39.6382 27.8359 38.8359 28.6382 38.8359 29.6279C38.8359 30.6175 39.6382 31.4198 40.6279 31.4198Z" fill="white" fill-opacity="0.28"/>
</g>
</svg>
